<?xml version="1.0" encoding="UTF-8" standalone="no"?>
<svg width="115px" height="63px" viewBox="0 0 115 63" version="1.1" xmlns="http://www.w3.org/2000/svg" xmlns:xlink="http://www.w3.org/1999/xlink">
    <!-- Generator: Sketch 3.6.1 (26313) - http://www.bohemiancoding.com/sketch -->
    <title>Main Page Copy</title>
    <desc>Created with Sketch.</desc>
    <defs></defs>
    <g id="Page-1" stroke="none" stroke-width="1" fill="none" fill-rule="evenodd">
        <g id="Main-Page-Copy" transform="translate(-18.000000, -14.000000)">
            <path d="M55.6195137,24 L60.8250783,29.2055646 L34.2055646,55.8250783 L29,50.6195137 L55.6195137,24 Z M44.8060711,47.1659513 L50.0116357,52.3715159 L40.3831516,62 L35.177587,56.7944354 L44.8060711,47.1659513 Z" id="Rectangle-3-Copy-5" fill="#FFFFFF"></path>
            <path d="M84.77,37 L84.77,35.35 L84.03,34.04 L83.73,33.87 L84.24,33.59 L84.77,32.63 L84.77,31.51 L84.24,30.53 L83.26,30 L79.56,30 L79.56,37 L80.41,37 L80.41,34.13 L82.49,34.13 L83.4,34.66 L83.93,35.58 L83.93,37 L84.77,37 Z M80.41,30.82 L83.03,30.82 L83.58,31.16 L83.93,31.74 L83.93,32.4 L83.57,32.99 L83.02,33.32 L80.41,33.32 L80.41,30.82 Z M86.4116667,37 L91.4116667,37 L91.4116667,36.18 L87.2516667,36.18 L87.2516667,33.94 L90.4816667,33.94 L90.4816667,33.12 L87.2516667,33.12 L87.2516667,30.82 L91.4116667,30.82 L91.4116667,30 L86.4116667,30 L86.4116667,37 Z M98.9233333,35.1 L97.0233333,36.18 L95.5933333,36.18 L94.3433333,35.47 L93.6433333,34.24 L93.6433333,32.77 L94.3633333,31.51 L95.5833333,30.82 L97.0133333,30.82 L98.8133333,31.81 L98.8133333,30.88 L97.2433333,30 L95.3533333,30 L93.7033333,30.9 L92.8033333,32.56 L92.8033333,34.44 L93.7033333,36.1 L95.3533333,37 L97.2433333,37 L98.9233333,36.06 L98.9233333,35.1 Z M100.635,30 L100.635,37 L101.475,37 L101.475,30 L100.635,30 Z M103.036667,37 L103.886667,37 L103.886667,34.13 L106.756667,34.13 L107.716667,33.6 L108.246667,32.63 L108.246667,31.51 L107.716667,30.53 L106.756667,30 L103.036667,30 L103.036667,37 Z M103.886667,30.82 L106.506667,30.82 L107.056667,31.16 L107.406667,31.74 L107.406667,32.4 L107.046667,32.99 L106.496667,33.32 L103.886667,33.32 L103.886667,30.82 Z M109.788333,37 L114.788333,37 L114.788333,36.18 L110.628333,36.18 L110.628333,33.94 L113.858333,33.94 L113.858333,33.12 L110.628333,33.12 L110.628333,30.82 L114.788333,30.82 L114.788333,30 L109.788333,30 L109.788333,37 Z M79.36,48 L80.21,48 L80.21,44.94 L83.63,44.94 L83.63,44.12 L80.21,44.12 L80.21,41.82 L84.53,41.82 L84.53,41 L79.36,41 L79.36,48 Z M88.3516667,41 L86.7116667,41.9 L85.8116667,43.56 L85.8116667,45.44 L86.7116667,47.1 L88.3516667,48 L90.2516667,48 L91.8916667,47.1 L92.8116667,45.44 L92.8116667,43.56 L91.8916667,41.9 L90.2516667,41 L88.3516667,41 Z M90.0016667,41.82 L91.2516667,42.52 L91.9516667,43.77 L91.9516667,45.23 L91.2316667,46.48 L90.0116667,47.18 L88.6016667,47.18 L87.3516667,46.48 L86.6516667,45.24 L86.6516667,43.77 L87.3716667,42.52 L88.5916667,41.82 L90.0016667,41.82 Z M99.5233333,48 L99.5233333,46.35 L98.7833333,45.04 L98.4833333,44.87 L98.9933333,44.59 L99.5233333,43.63 L99.5233333,42.51 L98.9933333,41.53 L98.0133333,41 L94.3133333,41 L94.3133333,48 L95.1633333,48 L95.1633333,45.13 L97.2433333,45.13 L98.1533333,45.66 L98.6833333,46.58 L98.6833333,48 L99.5233333,48 Z M95.1633333,41.82 L97.7833333,41.82 L98.3333333,42.16 L98.6833333,42.74 L98.6833333,43.4 L98.3233333,43.99 L97.7733333,44.32 L95.1633333,44.32 L95.1633333,41.82 Z M83.67,52.65 L82.55,52 L81.05,52 L79.97,52.61 L79.36,53.69 L79.36,57.31 L79.97,58.39 L81.05,59 L82.43,59 L83.51,58.39 L84.12,57.31 L84.12,56.23 L83.51,55.15 L82.43,54.54 L81.05,54.54 L80.21,55.04 L80.21,53.93 L80.61,53.23 L81.3,52.82 L82.28,52.82 L83.67,53.63 L83.67,52.65 Z M83.28,57.08 L82.88,57.78 L82.17,58.18 L81.3,58.18 L80.61,57.76 L80.21,57.08 L80.21,56.46 L80.61,55.75 L81.3,55.35 L82.18,55.35 L82.88,55.76 L83.28,56.44 L83.28,57.08 Z M91.5816667,57.1 L89.6816667,58.18 L88.2516667,58.18 L87.0016667,57.47 L86.3016667,56.24 L86.3016667,54.77 L87.0216667,53.51 L88.2416667,52.82 L89.6716667,52.82 L91.4716667,53.81 L91.4716667,52.88 L89.9016667,52 L88.0116667,52 L86.3616667,52.9 L85.4616667,54.56 L85.4616667,56.44 L86.3616667,58.1 L88.0116667,59 L89.9016667,59 L91.5816667,58.06 L91.5816667,57.1 Z M93.1633333,59 L98.1633333,59 L98.1633333,58.18 L94.0033333,58.18 L94.0033333,55.94 L97.2333333,55.94 L97.2333333,55.12 L94.0033333,55.12 L94.0033333,52.82 L98.1633333,52.82 L98.1633333,52 L93.1633333,52 L93.1633333,59 Z M99.755,57.29 L99.755,58.24 L101.095,59 L103.265,59 L104.225,58.47 L104.755,57.49 L104.755,56.37 L104.205,55.38 L100.855,54.57 L100.575,54.12 L100.575,53.56 L100.885,53.08 L101.285,52.82 L103.095,52.82 L104.405,53.54 L104.405,52.59 L103.335,52 L101.075,52 L100.205,52.49 L99.735,53.34 L99.735,54.34 L100.285,55.29 L103.625,56.1 L103.915,56.6 L103.915,57.27 L103.565,57.86 L103.005,58.18 L101.315,58.18 L99.755,57.29 Z M106.516667,57.29 L106.516667,58.24 L107.856667,59 L110.026667,59 L110.986667,58.47 L111.516667,57.49 L111.516667,56.37 L110.966667,55.38 L107.616667,54.57 L107.336667,54.12 L107.336667,53.56 L107.646667,53.08 L108.046667,52.82 L109.856667,52.82 L111.166667,53.54 L111.166667,52.59 L110.096667,52 L107.836667,52 L106.966667,52.49 L106.496667,53.34 L106.496667,54.34 L107.046667,55.29 L110.386667,56.1 L110.676667,56.6 L110.676667,57.27 L110.326667,57.86 L109.766667,58.18 L108.076667,58.18 L106.516667,57.29 Z" id="RECIPE-Copy" fill="#FFFFFF"></path>
            <g id="Corners-Copy" transform="translate(74.000000, 24.000000)" stroke="#FFFFFF">
                <path d="M43.506509,0.187214612 L45.8726433,0.187214612 L45.8726433,2.24657534" id="Path-2"></path>
                <path d="M0.212962963,0.187214612 L2.57909727,0.187214612 L2.57909727,2.24657534" id="Path-2-Copy-2" transform="translate(1.396030, 1.216895) rotate(-90.000000) translate(-1.396030, -1.216895) "></path>
                <path d="M43.4154139,38.7640438 L45.8436128,38.7640438 L45.8436128,40.8774223" id="Path-2-Copy" transform="translate(44.629513, 39.820733) rotate(-270.000000) translate(-44.629513, -39.820733) "></path>
                <path d="M0.200883352,38.7640438 L2.62908218,38.7640438 L2.62908218,40.8774223" id="Path-2-Copy-3" transform="translate(1.414983, 39.820733) rotate(-180.000000) translate(-1.414983, -39.820733) "></path>
            </g>
        </g>
    </g>
</svg>